<svg xmlns="http://www.w3.org/2000/svg" viewBox="0 0 800 1000" width="800" height="1000"><defs>
      <linearGradient id="bg" x1="0" y1="0" x2="0" y2="1"><stop offset="0" stop-color="#f6f2e7"/><stop offset="1" stop-color="#e5dcc4"/></linearGradient>
      <filter id="soft" x="-50%" y="-50%" width="200%" height="200%"><feGaussianBlur stdDeviation="14"/></filter>
  <filter id="glow" x="-50%" y="-50%" width="200%" height="200%"><feGaussianBlur stdDeviation="60"/></filter>
  <filter id="grain"><feTurbulence type="fractalNoise" baseFrequency=".9" numOctaves="2" stitchTiles="stitch"/><feColorMatrix values="0 0 0 0 0  0 0 0 0 0  0 0 0 0 0  0 0 0 .06 0"/></filter>
    <linearGradient id="liq-a" x1="0" y1="0" x2="1" y2="1">
      <stop offset="0" stop-color="#f1e3a7"/><stop offset="1" stop-color="#d2b962"/>
    </linearGradient>
    <linearGradient id="cap-a" x1="0" y1="0" x2="1" y2="0">
      <stop offset="0" stop-color="#b8924a"/><stop offset=".45" stop-color="#f3deaa"/><stop offset="1" stop-color="#b8924a"/>
    </linearGradient>
    <clipPath id="clip-a"><path d="M-150 290V-36A150 150 0 0 1 150-36V290Q150 310 130 310H-130Q-150 310-150 290Z"/></clipPath>
    </defs>
    <rect width="800" height="1000" fill="url(#bg)"/>
    <circle cx="400" cy="470" r="250" fill="#ffffff" opacity=".55" filter="url(#glow)"/>
    <rect x="170" y="130" width="460" height="760" rx="230" fill="#fff" opacity="0.34"/>
    <rect y="826" width="800" height="174" fill="#000" opacity="0.06"/>
    <rect y="826" width="800" height="2" fill="#fff" opacity="0.5"/>
    
  <g transform="translate(400 528) scale(0.94)">
    <ellipse cx="0" cy="316" rx="190" ry="15" fill="#000" opacity=".2" filter="url(#soft)"/>
    <g fill="url(#cap-a)"><rect x="-50" y="-310" width="100" height="98" rx="49"/></g>
    <g fill="#b8924a" opacity=".85"><rect x="-32" y="-214" width="64" height="30"/></g>
    <g fill="#fff" fill-opacity=".22" stroke="#fff" stroke-opacity=".6" stroke-width="3"><path d="M-150 290V-36A150 150 0 0 1 150-36V290Q150 310 130 310H-130Q-150 310-150 290Z"/></g>
    <g clip-path="url(#clip-a)">
      <rect x="-240" y="-70" width="480" height="640" fill="url(#liq-a)" opacity=".94"/>
      <rect x="-240" y="-70" width="480" height="5" fill="#fff" opacity=".35"/>
      <rect x="-240" y="276" width="480" height="40" fill="#000" opacity=".1"/>
      <rect x="-126" y="-20" width="14" height="280" rx="7" fill="#fff" opacity=".38"/>
      <rect x="-102" y="10" width="5" height="160" rx="2.5" fill="#fff" opacity=".22"/>
    </g>
    <g transform="translate(0 110)">
        <rect x="-84" y="-66" width="168" height="132" fill="#f7f1e3"/>
        <rect x="-76" y="-58" width="152" height="116" fill="none" stroke="#2a2118" stroke-opacity=".35"/>
        <text y="-6" text-anchor="middle" font-family="Georgia, 'Times New Roman', serif" font-size="21" letter-spacing="4" fill="#2a2118">JASMINE</text>
        <line x1="-22" x2="22" y1="14" y2="14" stroke="#2a2118" stroke-opacity=".5"/>
        <text y="36" text-anchor="middle" font-family="Georgia, 'Times New Roman', serif" font-size="9" letter-spacing="3" fill="#2a2118" fill-opacity=".7">EAU DE PARFUM</text>
      </g>
  </g>
    <rect width="800" height="1000" filter="url(#grain)"/></svg>
